<svg xmlns="http://www.w3.org/2000/svg" xmlns:xlink="http://www.w3.org/1999/xlink" width="128" zoomAndPan="magnify" viewBox="0 0 96 95.999999" height="128" preserveAspectRatio="xMidYMid meet" version="1.0"><defs><g/><clipPath id="id1"><path d="M 32.46875 38.390625 L 63.21875 38.390625 L 63.21875 58 L 32.46875 58 Z M 32.46875 38.390625 " clip-rule="nonzero"/></clipPath><clipPath id="id2"><path d="M 51 59 L 61 59 L 61 60.890625 L 51 60.890625 Z M 51 59 " clip-rule="nonzero"/></clipPath><clipPath id="id3"><path d="M 46 59 L 51 59 L 51 60.890625 L 46 60.890625 Z M 46 59 " clip-rule="nonzero"/></clipPath></defs><path fill="#ffffff" d="M 40.128906 49.878906 C 39.863281 49.878906 39.648438 50.09375 39.648438 50.355469 L 39.648438 50.835938 C 39.648438 51.097656 39.863281 51.3125 40.128906 51.3125 C 40.390625 51.3125 40.609375 51.097656 40.609375 50.835938 L 40.609375 50.355469 C 40.609375 50.09375 40.390625 49.878906 40.128906 49.878906 Z M 40.128906 49.878906 " fill-opacity="1" fill-rule="nonzero"/><path fill="#ffffff" d="M 41.570312 49.878906 C 41.304688 49.878906 41.089844 50.09375 41.089844 50.355469 L 41.089844 50.835938 C 41.089844 51.097656 41.304688 51.3125 41.570312 51.3125 C 41.832031 51.3125 42.046875 51.097656 42.046875 50.835938 L 42.046875 50.355469 C 42.046875 50.09375 41.832031 49.878906 41.570312 49.878906 Z M 41.570312 49.878906 " fill-opacity="1" fill-rule="nonzero"/><path fill="#ffffff" d="M 43.007812 49.878906 C 42.746094 49.878906 42.527344 50.09375 42.527344 50.355469 L 42.527344 50.835938 C 42.527344 51.097656 42.746094 51.3125 43.007812 51.3125 C 43.273438 51.3125 43.488281 51.097656 43.488281 50.835938 L 43.488281 50.355469 C 43.488281 50.09375 43.273438 49.878906 43.007812 49.878906 Z M 43.007812 49.878906 " fill-opacity="1" fill-rule="nonzero"/><path fill="#ffffff" d="M 46.609375 51.3125 C 46.875 51.3125 47.089844 51.097656 47.089844 50.835938 L 47.089844 50.355469 C 47.089844 50.09375 46.875 49.878906 46.609375 49.878906 C 46.34375 49.878906 46.128906 50.09375 46.128906 50.355469 L 46.128906 50.835938 C 46.128906 51.097656 46.34375 51.3125 46.609375 51.3125 Z M 46.609375 51.3125 " fill-opacity="1" fill-rule="nonzero"/><path fill="#ffffff" d="M 48.050781 51.3125 C 48.3125 51.3125 48.53125 51.097656 48.53125 50.835938 L 48.53125 50.355469 C 48.53125 50.09375 48.3125 49.878906 48.050781 49.878906 C 47.785156 49.878906 47.570312 50.09375 47.570312 50.355469 L 47.570312 50.835938 C 47.570312 51.097656 47.785156 51.3125 48.050781 51.3125 Z M 48.050781 51.3125 " fill-opacity="1" fill-rule="nonzero"/><path fill="#ffffff" d="M 49.488281 51.3125 C 49.753906 51.3125 49.96875 51.097656 49.96875 50.835938 L 49.96875 50.355469 C 49.96875 50.09375 49.753906 49.878906 49.488281 49.878906 C 49.226562 49.878906 49.011719 50.09375 49.011719 50.355469 L 49.011719 50.835938 C 49.011719 51.097656 49.226562 51.3125 49.488281 51.3125 Z M 49.488281 51.3125 " fill-opacity="1" fill-rule="nonzero"/><path fill="#ffffff" d="M 54.265625 49.878906 C 54.003906 49.878906 53.785156 50.09375 53.785156 50.355469 L 53.785156 50.835938 C 53.785156 51.097656 54.003906 51.3125 54.265625 51.3125 C 54.53125 51.3125 54.746094 51.097656 54.746094 50.835938 L 54.746094 50.355469 C 54.746094 50.09375 54.53125 49.878906 54.265625 49.878906 Z M 54.265625 49.878906 " fill-opacity="1" fill-rule="nonzero"/><path fill="#ffffff" d="M 55.707031 49.878906 C 55.441406 49.878906 55.226562 50.09375 55.226562 50.355469 L 55.226562 50.835938 C 55.226562 51.097656 55.441406 51.3125 55.707031 51.3125 C 55.972656 51.3125 56.1875 51.097656 56.1875 50.835938 L 56.1875 50.355469 C 56.1875 50.09375 55.972656 49.878906 55.707031 49.878906 Z M 55.707031 49.878906 " fill-opacity="1" fill-rule="nonzero"/><g clip-path="url(#id1)"><path fill="#ffffff" d="M 62.714844 56.335938 L 56.019531 56.335938 C 56.402344 56.074219 56.667969 55.644531 56.667969 55.140625 C 56.667969 54.949219 56.621094 54.757812 56.546875 54.589844 C 57.964844 54.589844 59.285156 54.519531 60.316406 54.398438 C 61.421875 54.28125 62.285156 53.800781 62.765625 53.058594 C 63.125 52.484375 63.21875 51.816406 63.003906 51.167969 C 62.546875 49.78125 60.75 49.015625 60.125 48.777344 C 59.597656 47.652344 57.722656 47.246094 56.1875 47.246094 L 44.015625 47.246094 L 39.960938 45.167969 L 35.304688 38.589844 C 35.207031 38.46875 35.0625 38.398438 34.917969 38.398438 L 33 38.398438 C 32.855469 38.398438 32.734375 38.46875 32.636719 38.566406 C 32.542969 38.660156 32.519531 38.804688 32.542969 38.949219 L 33.910156 47.269531 C 33.09375 47.390625 32.46875 48.085938 32.46875 48.921875 C 32.46875 48.945312 32.46875 48.96875 32.46875 48.992188 C 32.613281 49.832031 32.976562 50.238281 33.984375 50.453125 C 34.175781 50.761719 34.390625 51.050781 34.632812 51.3125 L 33.550781 51.3125 C 32.949219 51.3125 32.46875 51.792969 32.46875 52.390625 C 32.46875 52.988281 32.949219 53.464844 33.550781 53.464844 L 38.015625 53.464844 C 38.664062 53.707031 39.3125 53.871094 39.960938 54.015625 C 39.625 54.28125 39.40625 54.6875 39.40625 55.140625 C 39.40625 55.644531 39.671875 56.074219 40.054688 56.335938 L 32.949219 56.335938 C 32.6875 56.335938 32.46875 56.550781 32.46875 56.816406 C 32.46875 57.078125 32.6875 57.292969 32.949219 57.292969 L 62.714844 57.292969 C 62.980469 57.292969 63.195312 57.078125 63.195312 56.816406 C 63.195312 56.550781 62.980469 56.335938 62.714844 56.335938 Z M 39.097656 45.621094 C 39.121094 45.765625 39.214844 45.859375 39.335938 45.933594 L 41.929688 47.246094 L 34.871094 47.246094 L 34.007812 41.984375 L 36.527344 41.984375 Z M 33.839844 41.027344 L 33.550781 39.355469 L 34.65625 39.355469 L 35.832031 41.027344 Z M 33.550781 52.507812 C 33.480469 52.507812 33.429688 52.460938 33.429688 52.390625 C 33.429688 52.316406 33.480469 52.269531 33.550781 52.269531 L 35.710938 52.269531 C 35.832031 52.34375 35.953125 52.4375 36.070312 52.507812 Z M 35.253906 50.570312 C 35.421875 50.5 35.566406 50.355469 35.566406 50.164062 C 35.589844 49.902344 35.398438 49.664062 35.136719 49.664062 C 33.574219 49.542969 33.503906 49.351562 33.429688 48.921875 C 33.453125 48.515625 33.765625 48.203125 34.152344 48.203125 L 52.347656 48.203125 L 52.347656 53.585938 C 51.769531 53.5625 51.171875 53.5625 50.617188 53.539062 C 50.304688 53.539062 49.96875 53.515625 49.65625 53.515625 C 49.464844 52.652344 48.699219 52.03125 47.785156 52.03125 L 45.386719 52.03125 C 45.265625 52.03125 45.167969 52.078125 45.074219 52.152344 L 43.609375 53.347656 C 43.5625 53.371094 43.535156 53.417969 43.488281 53.464844 C 41.015625 53.371094 37.246094 52.867188 35.253906 50.570312 Z M 48.769531 53.945312 C 48.769531 54.46875 48.335938 54.902344 47.808594 54.902344 L 45.601562 54.902344 L 44.472656 53.898438 L 45.578125 52.988281 L 47.808594 52.988281 C 48.335938 52.988281 48.769531 53.417969 48.769531 53.945312 Z M 40.847656 55.617188 C 40.585938 55.617188 40.367188 55.402344 40.367188 55.140625 C 40.367188 54.878906 40.585938 54.660156 40.847656 54.660156 C 41.113281 54.660156 41.328125 54.878906 41.328125 55.140625 C 41.328125 55.402344 41.113281 55.617188 40.847656 55.617188 Z M 41.640625 56.335938 C 42.023438 56.074219 42.289062 55.644531 42.289062 55.140625 C 42.289062 54.828125 42.191406 54.542969 42.023438 54.328125 C 42.578125 54.375 43.105469 54.398438 43.609375 54.421875 L 45.074219 55.738281 C 45.167969 55.808594 45.265625 55.859375 45.386719 55.859375 L 47.785156 55.859375 C 48.648438 55.859375 49.394531 55.285156 49.632812 54.46875 C 49.945312 54.46875 50.257812 54.496094 50.59375 54.496094 C 51.675781 54.519531 52.800781 54.542969 53.90625 54.566406 C 53.835938 54.734375 53.785156 54.925781 53.785156 55.140625 C 53.785156 55.644531 54.050781 56.074219 54.433594 56.335938 Z M 55.226562 55.617188 C 54.964844 55.617188 54.746094 55.402344 54.746094 55.140625 C 54.746094 54.878906 54.964844 54.660156 55.226562 54.660156 C 55.492188 54.660156 55.707031 54.878906 55.707031 55.140625 C 55.707031 55.402344 55.492188 55.617188 55.226562 55.617188 Z M 53.308594 53.609375 L 53.308594 48.203125 L 56.210938 48.203125 C 57.316406 48.203125 58.277344 48.417969 58.851562 48.753906 L 57.363281 48.753906 C 57.097656 48.753906 56.882812 48.96875 56.882812 49.234375 C 56.882812 49.496094 57.097656 49.710938 57.363281 49.710938 L 59.882812 49.710938 C 59.90625 49.710938 59.90625 49.710938 59.933594 49.710938 C 60.628906 49.972656 61.851562 50.597656 62.117188 51.457031 C 62.238281 51.839844 62.1875 52.222656 61.972656 52.558594 C 61.660156 53.058594 61.035156 53.371094 60.21875 53.464844 C 58.46875 53.65625 55.921875 53.65625 53.308594 53.609375 Z M 53.308594 53.609375 " fill-opacity="1" fill-rule="nonzero"/></g><path fill="#ffffff" d="M 44.6875 58.96875 C 44.6875 58.703125 44.472656 58.488281 44.207031 58.488281 L 34.632812 58.488281 C 34.367188 58.488281 34.152344 58.703125 34.152344 58.96875 C 34.152344 59.230469 34.367188 59.445312 34.632812 59.445312 L 44.207031 59.445312 C 44.472656 59.445312 44.6875 59.230469 44.6875 58.96875 Z M 44.6875 58.96875 " fill-opacity="1" fill-rule="nonzero"/><g clip-path="url(#id2)"><path fill="#ffffff" d="M 51.867188 60.882812 L 59.523438 60.882812 C 59.789062 60.882812 60.003906 60.664062 60.003906 60.402344 C 60.003906 60.140625 59.789062 59.925781 59.523438 59.925781 L 51.867188 59.925781 C 51.601562 59.925781 51.386719 60.140625 51.386719 60.402344 C 51.386719 60.664062 51.601562 60.882812 51.867188 60.882812 Z M 51.867188 60.882812 " fill-opacity="1" fill-rule="nonzero"/></g><g clip-path="url(#id3)"><path fill="#ffffff" d="M 49.730469 60.882812 C 49.992188 60.882812 50.210938 60.664062 50.210938 60.402344 C 50.210938 60.140625 49.992188 59.925781 49.730469 59.925781 L 46.847656 59.925781 C 46.585938 59.925781 46.371094 60.140625 46.371094 60.402344 C 46.371094 60.664062 46.585938 60.882812 46.847656 60.882812 Z M 49.730469 60.882812 " fill-opacity="1" fill-rule="nonzero"/></g><path stroke-linecap="round" transform="matrix(0.756243, 0, 0, 0.75, 28.176192, 65.979558)" fill="none" stroke-linejoin="miter" d="M 0.500495 0.00121465 L 52.066086 0.00121465 " stroke="#ffffff" stroke-width="1" stroke-opacity="1" stroke-miterlimit="4"/><g fill="#ffffff" fill-opacity="1"><g transform="translate(30.552749, 73.085381)"><g><path d="M 2.328125 0 L 0.21875 -5.34375 L 0.796875 -5.34375 L 2.578125 -0.609375 L 4.375 -5.34375 L 4.953125 -5.34375 L 2.859375 0 Z M 2.328125 0 "/></g></g></g><g fill="#ffffff" fill-opacity="1"><g transform="translate(35.729067, 73.085381)"><g><path d="M 1.25 -5.421875 C 1.25 -5.316406 1.210938 -5.222656 1.140625 -5.140625 C 1.066406 -5.066406 0.972656 -5.03125 0.859375 -5.03125 C 0.753906 -5.03125 0.660156 -5.066406 0.578125 -5.140625 C 0.503906 -5.222656 0.46875 -5.316406 0.46875 -5.421875 C 0.46875 -5.535156 0.503906 -5.628906 0.578125 -5.703125 C 0.660156 -5.785156 0.753906 -5.828125 0.859375 -5.828125 C 0.972656 -5.828125 1.066406 -5.785156 1.140625 -5.703125 C 1.210938 -5.628906 1.25 -5.535156 1.25 -5.421875 Z M 0.578125 0 L 0.578125 -4.234375 L 1.125 -4.234375 L 1.125 0 Z M 0.578125 0 "/></g></g></g><g fill="#ffffff" fill-opacity="1"><g transform="translate(37.433843, 73.085381)"><g><path d="M 3.53125 -0.859375 C 3.84375 -1.179688 4 -1.597656 4 -2.109375 C 4 -2.628906 3.84375 -3.046875 3.53125 -3.359375 C 3.226562 -3.679688 2.859375 -3.84375 2.421875 -3.84375 C 1.992188 -3.84375 1.628906 -3.6875 1.328125 -3.375 C 1.023438 -3.070312 0.875 -2.660156 0.875 -2.140625 C 0.875 -1.628906 1.023438 -1.207031 1.328125 -0.875 C 1.640625 -0.550781 2.007812 -0.390625 2.4375 -0.390625 C 2.863281 -0.390625 3.226562 -0.546875 3.53125 -0.859375 Z M 2.359375 0.078125 C 1.765625 0.078125 1.273438 -0.128906 0.890625 -0.546875 C 0.503906 -0.960938 0.3125 -1.492188 0.3125 -2.140625 C 0.3125 -2.796875 0.503906 -3.320312 0.890625 -3.71875 C 1.273438 -4.113281 1.765625 -4.3125 2.359375 -4.3125 C 2.734375 -4.3125 3.066406 -4.21875 3.359375 -4.03125 C 3.648438 -3.84375 3.863281 -3.601562 4 -3.3125 L 4 -4.234375 L 4.546875 -4.234375 L 4.546875 0 L 4 0 L 4 -0.9375 C 3.863281 -0.632812 3.648438 -0.390625 3.359375 -0.203125 C 3.066406 -0.015625 2.734375 0.078125 2.359375 0.078125 Z M 2.359375 0.078125 "/></g></g></g><g fill="#ffffff" fill-opacity="1"><g transform="translate(42.563667, 73.085381)"><g><path d="M 0.578125 -4.234375 L 1.125 -4.234375 L 1.125 0.984375 C 1.125 1.660156 0.789062 2 0.125 2 L -0.28125 2 L -0.28125 1.5625 L 0.015625 1.5625 C 0.222656 1.5625 0.367188 1.519531 0.453125 1.4375 C 0.535156 1.351562 0.578125 1.203125 0.578125 0.984375 Z M 1.25 -5.421875 C 1.25 -5.316406 1.210938 -5.222656 1.140625 -5.140625 C 1.066406 -5.066406 0.972656 -5.03125 0.859375 -5.03125 C 0.753906 -5.03125 0.660156 -5.066406 0.578125 -5.140625 C 0.503906 -5.222656 0.46875 -5.316406 0.46875 -5.421875 C 0.46875 -5.535156 0.503906 -5.628906 0.578125 -5.703125 C 0.660156 -5.785156 0.753906 -5.828125 0.859375 -5.828125 C 0.972656 -5.828125 1.066406 -5.785156 1.140625 -5.703125 C 1.210938 -5.628906 1.25 -5.535156 1.25 -5.421875 Z M 1.25 -5.421875 "/></g></g></g><g fill="#ffffff" fill-opacity="1"><g transform="translate(44.268444, 73.085381)"><g><path d="M 3.53125 -0.859375 C 3.84375 -1.179688 4 -1.597656 4 -2.109375 C 4 -2.628906 3.84375 -3.046875 3.53125 -3.359375 C 3.226562 -3.679688 2.859375 -3.84375 2.421875 -3.84375 C 1.992188 -3.84375 1.628906 -3.6875 1.328125 -3.375 C 1.023438 -3.070312 0.875 -2.660156 0.875 -2.140625 C 0.875 -1.628906 1.023438 -1.207031 1.328125 -0.875 C 1.640625 -0.550781 2.007812 -0.390625 2.4375 -0.390625 C 2.863281 -0.390625 3.226562 -0.546875 3.53125 -0.859375 Z M 2.359375 0.078125 C 1.765625 0.078125 1.273438 -0.128906 0.890625 -0.546875 C 0.503906 -0.960938 0.3125 -1.492188 0.3125 -2.140625 C 0.3125 -2.796875 0.503906 -3.320312 0.890625 -3.71875 C 1.273438 -4.113281 1.765625 -4.3125 2.359375 -4.3125 C 2.734375 -4.3125 3.066406 -4.21875 3.359375 -4.03125 C 3.648438 -3.84375 3.863281 -3.601562 4 -3.3125 L 4 -4.234375 L 4.546875 -4.234375 L 4.546875 0 L 4 0 L 4 -0.9375 C 3.863281 -0.632812 3.648438 -0.390625 3.359375 -0.203125 C 3.066406 -0.015625 2.734375 0.078125 2.359375 0.078125 Z M 2.359375 0.078125 "/></g></g></g><g fill="#ffffff" fill-opacity="1"><g transform="translate(49.398267, 73.085381)"><g><path d="M 1.125 -4.234375 L 1.125 -3.546875 C 1.40625 -4.054688 1.875 -4.3125 2.53125 -4.3125 C 3 -4.3125 3.390625 -4.15625 3.703125 -3.84375 C 4.015625 -3.539062 4.171875 -3.097656 4.171875 -2.515625 L 4.171875 0 L 3.640625 0 L 3.640625 -2.421875 C 3.640625 -2.878906 3.523438 -3.226562 3.296875 -3.46875 C 3.078125 -3.71875 2.769531 -3.84375 2.375 -3.84375 C 1.988281 -3.84375 1.679688 -3.71875 1.453125 -3.46875 C 1.234375 -3.226562 1.125 -2.878906 1.125 -2.421875 L 1.125 0 L 0.578125 0 L 0.578125 -4.234375 Z M 1.125 -4.234375 "/></g></g></g><g fill="#ffffff" fill-opacity="1"><g transform="translate(54.117393, 73.085381)"><g><path d="M 2.46875 -3.8125 L 1.296875 -3.8125 L 1.296875 -1 C 1.296875 -0.789062 1.335938 -0.640625 1.421875 -0.546875 C 1.503906 -0.460938 1.648438 -0.421875 1.859375 -0.421875 L 2.46875 -0.421875 L 2.46875 0 L 1.75 0 C 1.082031 0 0.75 -0.332031 0.75 -1 L 0.75 -3.8125 L 0.15625 -3.8125 L 0.15625 -4.234375 L 0.75 -4.234375 L 0.75 -5.296875 L 1.296875 -5.296875 L 1.296875 -4.234375 L 2.46875 -4.234375 Z M 2.46875 -3.8125 "/></g></g></g><g fill="#ffffff" fill-opacity="1"><g transform="translate(56.744297, 73.085381)"><g><path d="M 2.34375 0.078125 C 1.738281 0.078125 1.25 -0.117188 0.875 -0.515625 C 0.5 -0.921875 0.3125 -1.453125 0.3125 -2.109375 C 0.3125 -2.773438 0.503906 -3.304688 0.890625 -3.703125 C 1.273438 -4.109375 1.769531 -4.3125 2.375 -4.3125 C 2.988281 -4.3125 3.476562 -4.117188 3.84375 -3.734375 C 4.207031 -3.359375 4.390625 -2.894531 4.390625 -2.34375 C 4.390625 -2.1875 4.378906 -2.046875 4.359375 -1.921875 L 0.875 -1.921875 C 0.894531 -1.429688 1.039062 -1.046875 1.3125 -0.765625 C 1.582031 -0.492188 1.925781 -0.359375 2.34375 -0.359375 C 2.675781 -0.359375 2.957031 -0.429688 3.1875 -0.578125 C 3.414062 -0.734375 3.570312 -0.929688 3.65625 -1.171875 L 4.234375 -1.171875 C 4.097656 -0.804688 3.867188 -0.503906 3.546875 -0.265625 C 3.234375 -0.0351562 2.832031 0.078125 2.34375 0.078125 Z M 3.828125 -2.34375 C 3.828125 -2.8125 3.6875 -3.179688 3.40625 -3.453125 C 3.125 -3.734375 2.773438 -3.875 2.359375 -3.875 C 1.941406 -3.875 1.59375 -3.738281 1.3125 -3.46875 C 1.039062 -3.195312 0.894531 -2.820312 0.875 -2.34375 Z M 3.828125 -2.34375 "/></g></g></g><g fill="#ffffff" fill-opacity="1"><g transform="translate(61.43243, 73.085381)"><g><path d="M 0.46875 -3.0625 C 0.46875 -3.414062 0.609375 -3.710938 0.890625 -3.953125 C 1.179688 -4.191406 1.550781 -4.3125 2 -4.3125 C 2.457031 -4.3125 2.8125 -4.191406 3.0625 -3.953125 C 3.3125 -3.722656 3.445312 -3.398438 3.46875 -2.984375 L 2.90625 -2.984375 C 2.90625 -3.242188 2.820312 -3.457031 2.65625 -3.625 C 2.488281 -3.789062 2.253906 -3.875 1.953125 -3.875 C 1.660156 -3.875 1.429688 -3.800781 1.265625 -3.65625 C 1.097656 -3.507812 1.015625 -3.332031 1.015625 -3.125 C 1.015625 -2.925781 1.078125 -2.765625 1.203125 -2.640625 C 1.328125 -2.523438 1.484375 -2.445312 1.671875 -2.40625 C 1.859375 -2.363281 2.0625 -2.3125 2.28125 -2.25 C 2.5 -2.195312 2.703125 -2.140625 2.890625 -2.078125 C 3.078125 -2.015625 3.234375 -1.898438 3.359375 -1.734375 C 3.484375 -1.566406 3.546875 -1.347656 3.546875 -1.078125 C 3.546875 -0.742188 3.40625 -0.46875 3.125 -0.25 C 2.84375 -0.03125 2.46875 0.078125 2 0.078125 C 1.539062 0.078125 1.175781 -0.0390625 0.90625 -0.28125 C 0.632812 -0.519531 0.488281 -0.84375 0.46875 -1.25 L 1.015625 -1.25 C 1.023438 -0.988281 1.117188 -0.773438 1.296875 -0.609375 C 1.472656 -0.441406 1.710938 -0.359375 2.015625 -0.359375 C 2.328125 -0.359375 2.566406 -0.421875 2.734375 -0.546875 C 2.910156 -0.679688 3 -0.851562 3 -1.0625 C 3 -1.269531 2.9375 -1.429688 2.8125 -1.546875 C 2.6875 -1.671875 2.53125 -1.753906 2.34375 -1.796875 C 2.15625 -1.835938 1.953125 -1.882812 1.734375 -1.9375 C 1.515625 -2 1.3125 -2.0625 1.125 -2.125 C 0.9375 -2.1875 0.78125 -2.296875 0.65625 -2.453125 C 0.53125 -2.617188 0.46875 -2.820312 0.46875 -3.0625 Z M 0.46875 -3.0625 "/></g></g></g><g fill="#ffffff" fill-opacity="1"><g transform="translate(25.850789, 55.372667)"><g><path d="M 2.4375 -2.765625 L 2.4375 -2.796875 C 2.4375 -3.054688 2.363281 -3.304688 2.21875 -3.546875 C 2.125 -3.691406 2.078125 -3.84375 2.078125 -4 C 2.078125 -4.195312 2.128906 -4.34375 2.234375 -4.4375 C 2.347656 -4.539062 2.46875 -4.59375 2.59375 -4.59375 C 2.71875 -4.59375 2.832031 -4.539062 2.9375 -4.4375 C 3.050781 -4.34375 3.109375 -4.195312 3.109375 -4 C 3.109375 -3.84375 3.0625 -3.691406 2.96875 -3.546875 C 2.820312 -3.304688 2.75 -3.054688 2.75 -2.796875 L 2.75 -2.765625 L 2.796875 -2.75 C 2.859375 -2.71875 2.910156 -2.679688 2.953125 -2.640625 L 2.984375 -2.65625 C 3.210938 -2.789062 3.394531 -2.984375 3.53125 -3.234375 C 3.601562 -3.378906 3.707031 -3.488281 3.84375 -3.5625 C 3.96875 -3.632812 4.082031 -3.671875 4.1875 -3.671875 C 4.226562 -3.671875 4.269531 -3.664062 4.3125 -3.65625 C 4.457031 -3.601562 4.5625 -3.523438 4.625 -3.421875 C 4.664062 -3.347656 4.6875 -3.269531 4.6875 -3.1875 C 4.6875 -3.144531 4.679688 -3.097656 4.671875 -3.046875 C 4.640625 -2.898438 4.535156 -2.78125 4.359375 -2.6875 C 4.234375 -2.613281 4.09375 -2.578125 3.9375 -2.578125 L 3.90625 -2.578125 C 3.882812 -2.578125 3.863281 -2.578125 3.84375 -2.578125 C 3.582031 -2.578125 3.347656 -2.515625 3.140625 -2.390625 L 3.109375 -2.375 C 3.117188 -2.332031 3.125 -2.289062 3.125 -2.25 C 3.125 -2.207031 3.117188 -2.171875 3.109375 -2.140625 L 3.140625 -2.109375 C 3.347656 -1.992188 3.582031 -1.9375 3.84375 -1.9375 C 3.863281 -1.9375 3.882812 -1.9375 3.90625 -1.9375 L 3.9375 -1.9375 C 4.09375 -1.9375 4.234375 -1.898438 4.359375 -1.828125 C 4.535156 -1.722656 4.640625 -1.597656 4.671875 -1.453125 C 4.679688 -1.410156 4.6875 -1.363281 4.6875 -1.3125 C 4.6875 -1.226562 4.664062 -1.148438 4.625 -1.078125 C 4.5625 -0.972656 4.457031 -0.898438 4.3125 -0.859375 C 4.269531 -0.835938 4.226562 -0.828125 4.1875 -0.828125 C 4.082031 -0.828125 3.96875 -0.863281 3.84375 -0.9375 C 3.707031 -1.007812 3.601562 -1.125 3.53125 -1.28125 C 3.394531 -1.53125 3.210938 -1.71875 2.984375 -1.84375 L 2.953125 -1.875 C 2.890625 -1.820312 2.835938 -1.785156 2.796875 -1.765625 L 2.75 -1.75 L 2.75 -1.703125 C 2.75 -1.441406 2.820312 -1.191406 2.96875 -0.953125 C 3.0625 -0.816406 3.109375 -0.664062 3.109375 -0.5 C 3.109375 -0.300781 3.050781 -0.15625 2.9375 -0.0625 C 2.832031 0.0390625 2.71875 0.09375 2.59375 0.09375 C 2.46875 0.09375 2.347656 0.0390625 2.234375 -0.0625 C 2.128906 -0.15625 2.078125 -0.300781 2.078125 -0.5 C 2.078125 -0.664062 2.125 -0.816406 2.21875 -0.953125 C 2.363281 -1.191406 2.4375 -1.441406 2.4375 -1.703125 L 2.4375 -1.75 C 2.425781 -1.757812 2.410156 -1.765625 2.390625 -1.765625 C 2.335938 -1.796875 2.285156 -1.832031 2.234375 -1.875 L 2.1875 -1.84375 C 1.96875 -1.71875 1.789062 -1.53125 1.65625 -1.28125 C 1.582031 -1.125 1.476562 -1.007812 1.34375 -0.9375 C 1.21875 -0.863281 1.101562 -0.828125 1 -0.828125 C 0.957031 -0.828125 0.914062 -0.835938 0.875 -0.859375 C 0.726562 -0.898438 0.625 -0.972656 0.5625 -1.078125 C 0.519531 -1.148438 0.5 -1.226562 0.5 -1.3125 C 0.5 -1.363281 0.503906 -1.410156 0.515625 -1.453125 C 0.546875 -1.597656 0.648438 -1.722656 0.828125 -1.828125 C 0.953125 -1.898438 1.085938 -1.9375 1.234375 -1.9375 L 1.28125 -1.9375 C 1.300781 -1.9375 1.320312 -1.9375 1.34375 -1.9375 C 1.601562 -1.9375 1.835938 -1.992188 2.046875 -2.109375 L 2.078125 -2.125 C 2.066406 -2.164062 2.0625 -2.207031 2.0625 -2.25 C 2.0625 -2.289062 2.066406 -2.332031 2.078125 -2.375 L 2.046875 -2.390625 C 1.835938 -2.515625 1.601562 -2.578125 1.34375 -2.578125 C 1.320312 -2.578125 1.300781 -2.578125 1.28125 -2.578125 L 1.234375 -2.578125 C 1.085938 -2.578125 0.953125 -2.613281 0.828125 -2.6875 C 0.648438 -2.78125 0.546875 -2.898438 0.515625 -3.046875 C 0.503906 -3.097656 0.5 -3.144531 0.5 -3.1875 C 0.5 -3.269531 0.519531 -3.347656 0.5625 -3.421875 C 0.625 -3.523438 0.726562 -3.601562 0.875 -3.65625 C 0.914062 -3.664062 0.957031 -3.671875 1 -3.671875 C 1.101562 -3.671875 1.21875 -3.632812 1.34375 -3.5625 C 1.476562 -3.488281 1.582031 -3.378906 1.65625 -3.234375 C 1.789062 -2.972656 1.96875 -2.78125 2.1875 -2.65625 L 2.234375 -2.640625 C 2.285156 -2.691406 2.335938 -2.726562 2.390625 -2.75 C 2.410156 -2.757812 2.425781 -2.765625 2.4375 -2.765625 Z M 2.4375 -2.765625 "/></g></g></g><g fill="#ffffff" fill-opacity="1"><g transform="translate(64.585852, 55.372667)"><g><path d="M 2.4375 -2.765625 L 2.4375 -2.796875 C 2.4375 -3.054688 2.363281 -3.304688 2.21875 -3.546875 C 2.125 -3.691406 2.078125 -3.84375 2.078125 -4 C 2.078125 -4.195312 2.128906 -4.34375 2.234375 -4.4375 C 2.347656 -4.539062 2.46875 -4.59375 2.59375 -4.59375 C 2.71875 -4.59375 2.832031 -4.539062 2.9375 -4.4375 C 3.050781 -4.34375 3.109375 -4.195312 3.109375 -4 C 3.109375 -3.84375 3.0625 -3.691406 2.96875 -3.546875 C 2.820312 -3.304688 2.75 -3.054688 2.75 -2.796875 L 2.75 -2.765625 L 2.796875 -2.75 C 2.859375 -2.71875 2.910156 -2.679688 2.953125 -2.640625 L 2.984375 -2.65625 C 3.210938 -2.789062 3.394531 -2.984375 3.53125 -3.234375 C 3.601562 -3.378906 3.707031 -3.488281 3.84375 -3.5625 C 3.96875 -3.632812 4.082031 -3.671875 4.1875 -3.671875 C 4.226562 -3.671875 4.269531 -3.664062 4.3125 -3.65625 C 4.457031 -3.601562 4.5625 -3.523438 4.625 -3.421875 C 4.664062 -3.347656 4.6875 -3.269531 4.6875 -3.1875 C 4.6875 -3.144531 4.679688 -3.097656 4.671875 -3.046875 C 4.640625 -2.898438 4.535156 -2.78125 4.359375 -2.6875 C 4.234375 -2.613281 4.09375 -2.578125 3.9375 -2.578125 L 3.90625 -2.578125 C 3.882812 -2.578125 3.863281 -2.578125 3.84375 -2.578125 C 3.582031 -2.578125 3.347656 -2.515625 3.140625 -2.390625 L 3.109375 -2.375 C 3.117188 -2.332031 3.125 -2.289062 3.125 -2.25 C 3.125 -2.207031 3.117188 -2.171875 3.109375 -2.140625 L 3.140625 -2.109375 C 3.347656 -1.992188 3.582031 -1.9375 3.84375 -1.9375 C 3.863281 -1.9375 3.882812 -1.9375 3.90625 -1.9375 L 3.9375 -1.9375 C 4.09375 -1.9375 4.234375 -1.898438 4.359375 -1.828125 C 4.535156 -1.722656 4.640625 -1.597656 4.671875 -1.453125 C 4.679688 -1.410156 4.6875 -1.363281 4.6875 -1.3125 C 4.6875 -1.226562 4.664062 -1.148438 4.625 -1.078125 C 4.5625 -0.972656 4.457031 -0.898438 4.3125 -0.859375 C 4.269531 -0.835938 4.226562 -0.828125 4.1875 -0.828125 C 4.082031 -0.828125 3.96875 -0.863281 3.84375 -0.9375 C 3.707031 -1.007812 3.601562 -1.125 3.53125 -1.28125 C 3.394531 -1.53125 3.210938 -1.71875 2.984375 -1.84375 L 2.953125 -1.875 C 2.890625 -1.820312 2.835938 -1.785156 2.796875 -1.765625 L 2.75 -1.75 L 2.75 -1.703125 C 2.75 -1.441406 2.820312 -1.191406 2.96875 -0.953125 C 3.0625 -0.816406 3.109375 -0.664062 3.109375 -0.5 C 3.109375 -0.300781 3.050781 -0.15625 2.9375 -0.0625 C 2.832031 0.0390625 2.71875 0.09375 2.59375 0.09375 C 2.46875 0.09375 2.347656 0.0390625 2.234375 -0.0625 C 2.128906 -0.15625 2.078125 -0.300781 2.078125 -0.5 C 2.078125 -0.664062 2.125 -0.816406 2.21875 -0.953125 C 2.363281 -1.191406 2.4375 -1.441406 2.4375 -1.703125 L 2.4375 -1.75 C 2.425781 -1.757812 2.410156 -1.765625 2.390625 -1.765625 C 2.335938 -1.796875 2.285156 -1.832031 2.234375 -1.875 L 2.1875 -1.84375 C 1.96875 -1.71875 1.789062 -1.53125 1.65625 -1.28125 C 1.582031 -1.125 1.476562 -1.007812 1.34375 -0.9375 C 1.21875 -0.863281 1.101562 -0.828125 1 -0.828125 C 0.957031 -0.828125 0.914062 -0.835938 0.875 -0.859375 C 0.726562 -0.898438 0.625 -0.972656 0.5625 -1.078125 C 0.519531 -1.148438 0.5 -1.226562 0.5 -1.3125 C 0.5 -1.363281 0.503906 -1.410156 0.515625 -1.453125 C 0.546875 -1.597656 0.648438 -1.722656 0.828125 -1.828125 C 0.953125 -1.898438 1.085938 -1.9375 1.234375 -1.9375 L 1.28125 -1.9375 C 1.300781 -1.9375 1.320312 -1.9375 1.34375 -1.9375 C 1.601562 -1.9375 1.835938 -1.992188 2.046875 -2.109375 L 2.078125 -2.125 C 2.066406 -2.164062 2.0625 -2.207031 2.0625 -2.25 C 2.0625 -2.289062 2.066406 -2.332031 2.078125 -2.375 L 2.046875 -2.390625 C 1.835938 -2.515625 1.601562 -2.578125 1.34375 -2.578125 C 1.320312 -2.578125 1.300781 -2.578125 1.28125 -2.578125 L 1.234375 -2.578125 C 1.085938 -2.578125 0.953125 -2.613281 0.828125 -2.6875 C 0.648438 -2.78125 0.546875 -2.898438 0.515625 -3.046875 C 0.503906 -3.097656 0.5 -3.144531 0.5 -3.1875 C 0.5 -3.269531 0.519531 -3.347656 0.5625 -3.421875 C 0.625 -3.523438 0.726562 -3.601562 0.875 -3.65625 C 0.914062 -3.664062 0.957031 -3.671875 1 -3.671875 C 1.101562 -3.671875 1.21875 -3.632812 1.34375 -3.5625 C 1.476562 -3.488281 1.582031 -3.378906 1.65625 -3.234375 C 1.789062 -2.972656 1.96875 -2.78125 2.1875 -2.65625 L 2.234375 -2.640625 C 2.285156 -2.691406 2.335938 -2.726562 2.390625 -2.75 C 2.410156 -2.757812 2.425781 -2.765625 2.4375 -2.765625 Z M 2.4375 -2.765625 "/></g></g></g></svg>