<svg xmlns="http://www.w3.org/2000/svg" xmlns:xlink="http://www.w3.org/1999/xlink" width="500" zoomAndPan="magnify" viewBox="0 0 375 374.999991" height="500" preserveAspectRatio="xMidYMid meet" version="1.0"><defs><g/><clipPath id="id1"><path d="M 60.601562 32.382812 L 322.351562 32.382812 L 322.351562 194 L 60.601562 194 Z M 60.601562 32.382812 " clip-rule="nonzero"/></clipPath><clipPath id="id2"><path d="M 221 216 L 295 216 L 295 224.382812 L 221 224.382812 Z M 221 216 " clip-rule="nonzero"/></clipPath><clipPath id="id3"><path d="M 178 216 L 212 216 L 212 224.382812 L 178 224.382812 Z M 178 216 " clip-rule="nonzero"/></clipPath></defs><path fill="#ffffff" d="M 125.78125 130.421875 C 123.535156 130.421875 121.695312 132.257812 121.695312 134.503906 L 121.695312 138.585938 C 121.695312 140.828125 123.535156 142.664062 125.78125 142.664062 C 128.03125 142.664062 129.867188 140.828125 129.867188 138.585938 L 129.867188 134.503906 C 129.867188 132.257812 128.03125 130.421875 125.78125 130.421875 Z M 125.78125 130.421875 " fill-opacity="1" fill-rule="nonzero"/><path fill="#ffffff" d="M 138.042969 130.421875 C 135.792969 130.421875 133.957031 132.257812 133.957031 134.503906 L 133.957031 138.585938 C 133.957031 140.828125 135.792969 142.664062 138.042969 142.664062 C 140.289062 142.664062 142.128906 140.828125 142.128906 138.585938 L 142.128906 134.503906 C 142.128906 132.257812 140.289062 130.421875 138.042969 130.421875 Z M 138.042969 130.421875 " fill-opacity="1" fill-rule="nonzero"/><path fill="#ffffff" d="M 150.300781 130.421875 C 148.054688 130.421875 146.214844 132.257812 146.214844 134.503906 L 146.214844 138.585938 C 146.214844 140.828125 148.054688 142.664062 150.300781 142.664062 C 152.550781 142.664062 154.386719 140.828125 154.386719 138.585938 L 154.386719 134.503906 C 154.386719 132.257812 152.550781 130.421875 150.300781 130.421875 Z M 150.300781 130.421875 " fill-opacity="1" fill-rule="nonzero"/><path fill="#ffffff" d="M 180.953125 142.664062 C 183.199219 142.664062 185.039062 140.828125 185.039062 138.585938 L 185.039062 134.503906 C 185.039062 132.257812 183.199219 130.421875 180.953125 130.421875 C 178.703125 130.421875 176.863281 132.257812 176.863281 134.503906 L 176.863281 138.585938 C 176.863281 140.828125 178.703125 142.664062 180.953125 142.664062 Z M 180.953125 142.664062 " fill-opacity="1" fill-rule="nonzero"/><path fill="#ffffff" d="M 193.210938 142.664062 C 195.460938 142.664062 197.296875 140.828125 197.296875 138.585938 L 197.296875 134.503906 C 197.296875 132.257812 195.460938 130.421875 193.210938 130.421875 C 190.964844 130.421875 189.125 132.257812 189.125 134.503906 L 189.125 138.585938 C 189.125 140.828125 190.964844 142.664062 193.210938 142.664062 Z M 193.210938 142.664062 " fill-opacity="1" fill-rule="nonzero"/><path fill="#ffffff" d="M 205.472656 142.664062 C 207.71875 142.664062 209.558594 140.828125 209.558594 138.585938 L 209.558594 134.503906 C 209.558594 132.257812 207.71875 130.421875 205.472656 130.421875 C 203.222656 130.421875 201.386719 132.257812 201.386719 134.503906 L 201.386719 138.585938 C 201.386719 140.828125 203.222656 142.664062 205.472656 142.664062 Z M 205.472656 142.664062 " fill-opacity="1" fill-rule="nonzero"/><path fill="#ffffff" d="M 246.132812 130.421875 C 243.886719 130.421875 242.046875 132.257812 242.046875 134.503906 L 242.046875 138.585938 C 242.046875 140.828125 243.886719 142.664062 246.132812 142.664062 C 248.382812 142.664062 250.21875 140.828125 250.21875 138.585938 L 250.21875 134.503906 C 250.21875 132.257812 248.382812 130.421875 246.132812 130.421875 Z M 246.132812 130.421875 " fill-opacity="1" fill-rule="nonzero"/><path fill="#ffffff" d="M 258.394531 130.421875 C 256.144531 130.421875 254.308594 132.257812 254.308594 134.503906 L 254.308594 138.585938 C 254.308594 140.828125 256.144531 142.664062 258.394531 142.664062 C 260.640625 142.664062 262.480469 140.828125 262.480469 138.585938 L 262.480469 134.503906 C 262.480469 132.257812 260.640625 130.421875 258.394531 130.421875 Z M 258.394531 130.421875 " fill-opacity="1" fill-rule="nonzero"/><g clip-path="url(#id1)"><path fill="#ffffff" d="M 318.058594 185.515625 L 261.050781 185.515625 C 264.320312 183.269531 266.566406 179.597656 266.566406 175.3125 C 266.566406 173.679688 266.160156 172.046875 265.546875 170.621094 C 277.601562 170.621094 288.839844 170.007812 297.625 168.988281 C 307.023438 167.96875 314.382812 163.886719 318.46875 157.5625 C 321.53125 152.664062 322.351562 146.949219 320.511719 141.441406 C 316.628906 129.605469 301.304688 123.078125 295.992188 121.035156 C 291.496094 111.445312 275.558594 107.976562 262.480469 107.976562 L 158.882812 107.976562 L 124.351562 90.226562 L 84.710938 34.113281 C 83.894531 33.09375 82.667969 32.480469 81.441406 32.480469 L 65.09375 32.480469 C 63.871094 32.480469 62.847656 33.09375 62.03125 33.910156 C 61.210938 34.722656 61.007812 35.949219 61.210938 37.171875 L 72.859375 108.179688 C 65.914062 109.203125 60.601562 115.121094 60.601562 122.261719 C 60.601562 122.464844 60.601562 122.667969 60.601562 122.871094 C 61.824219 130.015625 64.890625 133.484375 73.472656 135.320312 C 75.109375 137.972656 76.945312 140.421875 78.988281 142.664062 L 69.792969 142.664062 C 64.6875 142.664062 60.601562 146.746094 60.601562 151.847656 C 60.601562 156.949219 64.6875 161.03125 69.792969 161.03125 L 107.800781 161.03125 C 113.316406 163.070312 118.835938 164.5 124.351562 165.722656 C 121.492188 167.96875 119.652344 171.4375 119.652344 175.3125 C 119.652344 179.597656 121.898438 183.269531 125.167969 185.515625 L 64.6875 185.515625 C 62.4375 185.515625 60.601562 187.351562 60.601562 189.597656 C 60.601562 191.839844 62.4375 193.675781 64.6875 193.675781 L 318.058594 193.675781 C 320.304688 193.675781 322.144531 191.839844 322.144531 189.597656 C 322.144531 187.351562 320.304688 185.515625 318.058594 185.515625 Z M 116.996094 94.101562 C 117.199219 95.328125 118.015625 96.144531 119.039062 96.753906 L 141.105469 107.976562 L 81.03125 107.976562 L 73.675781 63.085938 L 95.132812 63.085938 Z M 72.246094 54.925781 L 69.792969 40.640625 L 79.195312 40.640625 L 89.207031 54.925781 Z M 69.792969 152.867188 C 69.183594 152.867188 68.773438 152.460938 68.773438 151.847656 C 68.773438 151.234375 69.183594 150.828125 69.792969 150.828125 L 88.183594 150.828125 C 89.207031 151.441406 90.226562 152.253906 91.25 152.867188 Z M 84.300781 136.339844 C 85.734375 135.726562 86.957031 134.503906 86.957031 132.871094 C 87.164062 130.625 85.527344 128.585938 83.28125 128.585938 C 70 127.566406 69.386719 125.933594 68.773438 122.261719 C 68.976562 118.792969 71.632812 116.140625 74.902344 116.140625 L 229.789062 116.140625 L 229.789062 162.050781 C 224.882812 161.847656 219.773438 161.847656 215.074219 161.640625 C 212.417969 161.640625 209.558594 161.4375 206.902344 161.4375 C 205.265625 154.09375 198.730469 148.785156 190.964844 148.785156 L 170.53125 148.785156 C 169.507812 148.785156 168.691406 149.195312 167.875 149.808594 L 155.410156 160.007812 C 155 160.214844 154.796875 160.621094 154.386719 161.03125 C 133.34375 160.214844 101.261719 155.929688 84.300781 136.339844 Z M 199.339844 165.109375 C 199.339844 169.601562 195.664062 173.273438 191.167969 173.273438 L 172.371094 173.273438 L 162.765625 164.703125 L 172.164062 156.949219 L 191.167969 156.949219 C 195.664062 156.949219 199.339844 160.621094 199.339844 165.109375 Z M 131.910156 179.394531 C 129.664062 179.394531 127.824219 177.558594 127.824219 175.3125 C 127.824219 173.070312 129.664062 171.230469 131.910156 171.230469 C 134.160156 171.230469 136 173.070312 136 175.3125 C 136 177.558594 134.160156 179.394531 131.910156 179.394531 Z M 138.65625 185.515625 C 141.925781 183.269531 144.171875 179.597656 144.171875 175.3125 C 144.171875 172.660156 143.355469 170.210938 141.925781 168.375 C 146.625 168.785156 151.121094 168.988281 155.410156 169.191406 L 167.875 180.414062 C 168.691406 181.027344 169.507812 181.433594 170.53125 181.433594 L 190.964844 181.433594 C 198.320312 181.433594 204.65625 176.539062 206.699219 169.601562 C 209.355469 169.601562 212.011719 169.804688 214.871094 169.804688 C 224.066406 170.007812 233.667969 170.210938 243.070312 170.414062 C 242.457031 171.84375 242.046875 173.476562 242.046875 175.3125 C 242.046875 179.597656 244.292969 183.269531 247.5625 185.515625 Z M 254.308594 179.394531 C 252.058594 179.394531 250.21875 177.558594 250.21875 175.3125 C 250.21875 173.070312 252.058594 171.230469 254.308594 171.230469 C 256.554688 171.230469 258.394531 173.070312 258.394531 175.3125 C 258.394531 177.558594 256.554688 179.394531 254.308594 179.394531 Z M 237.960938 162.253906 L 237.960938 116.140625 L 262.683594 116.140625 C 272.085938 116.140625 280.257812 117.976562 285.160156 120.832031 L 272.492188 120.832031 C 270.246094 120.832031 268.40625 122.667969 268.40625 124.914062 C 268.40625 127.15625 270.246094 128.996094 272.492188 128.996094 L 293.949219 128.996094 C 294.152344 128.996094 294.152344 128.996094 294.355469 128.996094 C 300.28125 131.238281 310.703125 136.542969 312.949219 143.890625 C 313.972656 147.15625 313.5625 150.417969 311.722656 153.277344 C 309.066406 157.5625 303.753906 160.214844 296.808594 161.03125 C 281.890625 162.664062 260.234375 162.664062 237.960938 162.253906 Z M 237.960938 162.253906 " fill-opacity="1" fill-rule="nonzero"/></g><path fill="#ffffff" d="M 164.605469 207.960938 C 164.605469 205.714844 162.765625 203.878906 160.519531 203.878906 L 78.988281 203.878906 C 76.742188 203.878906 74.902344 205.714844 74.902344 207.960938 C 74.902344 210.207031 76.742188 212.042969 78.988281 212.042969 L 160.519531 212.042969 C 162.765625 212.042969 164.605469 210.207031 164.605469 207.960938 Z M 164.605469 207.960938 " fill-opacity="1" fill-rule="nonzero"/><g clip-path="url(#id2)"><path fill="#ffffff" d="M 225.699219 224.285156 L 290.882812 224.285156 C 293.128906 224.285156 294.96875 222.449219 294.96875 220.203125 C 294.96875 217.960938 293.128906 216.121094 290.882812 216.121094 L 225.699219 216.121094 C 223.453125 216.121094 221.613281 217.960938 221.613281 220.203125 C 221.613281 222.449219 223.453125 224.285156 225.699219 224.285156 Z M 225.699219 224.285156 " fill-opacity="1" fill-rule="nonzero"/></g><g clip-path="url(#id3)"><path fill="#ffffff" d="M 207.515625 224.285156 C 209.761719 224.285156 211.601562 222.449219 211.601562 220.203125 C 211.601562 217.960938 209.761719 216.121094 207.515625 216.121094 L 182.996094 216.121094 C 180.746094 216.121094 178.910156 217.960938 178.910156 220.203125 C 178.910156 222.449219 180.746094 224.285156 182.996094 224.285156 Z M 207.515625 224.285156 " fill-opacity="1" fill-rule="nonzero"/></g><path stroke-linecap="round" transform="matrix(5.255375, 0, 0, 4.881356, 24.445218, 263.949271)" fill="none" stroke-linejoin="miter" d="M 0.50025 -0.0000106358 L 62.721515 -0.0000106358 " stroke="#ffffff" stroke-width="1" stroke-opacity="1" stroke-miterlimit="4"/><g fill="#ffffff" fill-opacity="1"><g transform="translate(44.453414, 324.489452)"><g><path d="M 19.578125 0 L 1.890625 -45.015625 L 6.71875 -45.015625 L 21.734375 -5.15625 L 36.859375 -45.015625 L 41.6875 -45.015625 L 24.015625 0 Z M 19.578125 0 "/></g></g></g><g fill="#ffffff" fill-opacity="1"><g transform="translate(88.032717, 324.489452)"><g><path d="M 10.578125 -45.703125 C 10.578125 -44.773438 10.257812 -43.984375 9.625 -43.328125 C 8.988281 -42.671875 8.203125 -42.34375 7.265625 -42.34375 C 6.335938 -42.34375 5.546875 -42.671875 4.890625 -43.328125 C 4.242188 -43.984375 3.921875 -44.773438 3.921875 -45.703125 C 3.921875 -46.640625 4.242188 -47.429688 4.890625 -48.078125 C 5.546875 -48.734375 6.335938 -49.0625 7.265625 -49.0625 C 8.203125 -49.0625 8.988281 -48.734375 9.625 -48.078125 C 10.257812 -47.429688 10.578125 -46.640625 10.578125 -45.703125 Z M 4.890625 0 L 4.890625 -35.625 L 9.46875 -35.625 L 9.46875 0 Z M 4.890625 0 "/></g></g></g><g fill="#ffffff" fill-opacity="1"><g transform="translate(102.38519, 324.489452)"><g><path d="M 29.84375 -7.265625 C 32.4375 -9.941406 33.734375 -13.457031 33.734375 -17.8125 C 33.734375 -22.164062 32.4375 -25.675781 29.84375 -28.34375 C 27.257812 -31.019531 24.140625 -32.359375 20.484375 -32.359375 C 16.828125 -32.359375 13.71875 -31.078125 11.15625 -28.515625 C 8.59375 -25.953125 7.3125 -22.484375 7.3125 -18.109375 C 7.3125 -13.734375 8.601562 -10.164062 11.1875 -7.40625 C 13.78125 -4.644531 16.890625 -3.265625 20.515625 -3.265625 C 24.148438 -3.265625 27.257812 -4.597656 29.84375 -7.265625 Z M 19.84375 0.65625 C 14.875 0.65625 10.757812 -1.101562 7.5 -4.625 C 4.238281 -8.15625 2.609375 -12.648438 2.609375 -18.109375 C 2.609375 -23.566406 4.226562 -27.957031 7.46875 -31.28125 C 10.707031 -34.613281 14.832031 -36.28125 19.84375 -36.28125 C 23.0625 -36.28125 25.882812 -35.492188 28.3125 -33.921875 C 30.75 -32.359375 32.554688 -30.335938 33.734375 -27.859375 L 33.734375 -35.625 L 38.296875 -35.625 L 38.296875 0 L 33.734375 0 L 33.734375 -7.828125 C 32.554688 -5.347656 30.75 -3.3125 28.3125 -1.71875 C 25.882812 -0.132812 23.0625 0.65625 19.84375 0.65625 Z M 19.84375 0.65625 "/></g></g></g><g fill="#ffffff" fill-opacity="1"><g transform="translate(145.573059, 324.489452)"><g><path d="M 4.890625 -35.625 L 9.46875 -35.625 L 9.46875 8.359375 C 9.46875 14.003906 6.679688 16.828125 1.109375 16.828125 L -2.34375 16.828125 L -2.34375 13.1875 L 0.125 13.1875 C 1.914062 13.1875 3.15625 12.828125 3.84375 12.109375 C 4.539062 11.390625 4.890625 10.140625 4.890625 8.359375 Z M 10.578125 -45.703125 C 10.578125 -44.773438 10.257812 -43.984375 9.625 -43.328125 C 8.988281 -42.671875 8.203125 -42.34375 7.265625 -42.34375 C 6.335938 -42.34375 5.546875 -42.671875 4.890625 -43.328125 C 4.242188 -43.984375 3.921875 -44.773438 3.921875 -45.703125 C 3.921875 -46.640625 4.242188 -47.429688 4.890625 -48.078125 C 5.546875 -48.734375 6.335938 -49.0625 7.265625 -49.0625 C 8.203125 -49.0625 8.988281 -48.734375 9.625 -48.078125 C 10.257812 -47.429688 10.578125 -46.640625 10.578125 -45.703125 Z M 10.578125 -45.703125 "/></g></g></g><g fill="#ffffff" fill-opacity="1"><g transform="translate(159.925532, 324.489452)"><g><path d="M 29.84375 -7.265625 C 32.4375 -9.941406 33.734375 -13.457031 33.734375 -17.8125 C 33.734375 -22.164062 32.4375 -25.675781 29.84375 -28.34375 C 27.257812 -31.019531 24.140625 -32.359375 20.484375 -32.359375 C 16.828125 -32.359375 13.71875 -31.078125 11.15625 -28.515625 C 8.59375 -25.953125 7.3125 -22.484375 7.3125 -18.109375 C 7.3125 -13.734375 8.601562 -10.164062 11.1875 -7.40625 C 13.78125 -4.644531 16.890625 -3.265625 20.515625 -3.265625 C 24.148438 -3.265625 27.257812 -4.597656 29.84375 -7.265625 Z M 19.84375 0.65625 C 14.875 0.65625 10.757812 -1.101562 7.5 -4.625 C 4.238281 -8.15625 2.609375 -12.648438 2.609375 -18.109375 C 2.609375 -23.566406 4.226562 -27.957031 7.46875 -31.28125 C 10.707031 -34.613281 14.832031 -36.28125 19.84375 -36.28125 C 23.0625 -36.28125 25.882812 -35.492188 28.3125 -33.921875 C 30.75 -32.359375 32.554688 -30.335938 33.734375 -27.859375 L 33.734375 -35.625 L 38.296875 -35.625 L 38.296875 0 L 33.734375 0 L 33.734375 -7.828125 C 32.554688 -5.347656 30.75 -3.3125 28.3125 -1.71875 C 25.882812 -0.132812 23.0625 0.65625 19.84375 0.65625 Z M 19.84375 0.65625 "/></g></g></g><g fill="#ffffff" fill-opacity="1"><g transform="translate(203.113402, 324.489452)"><g><path d="M 9.46875 -35.625 L 9.46875 -29.8125 C 11.851562 -34.125 15.785156 -36.28125 21.265625 -36.28125 C 25.222656 -36.28125 28.53125 -34.984375 31.1875 -32.390625 C 33.84375 -29.804688 35.171875 -26.078125 35.171875 -21.203125 L 35.171875 0 L 30.671875 0 L 30.671875 -20.359375 C 30.671875 -24.273438 29.722656 -27.253906 27.828125 -29.296875 C 25.929688 -31.335938 23.34375 -32.359375 20.0625 -32.359375 C 16.78125 -32.359375 14.191406 -31.335938 12.296875 -29.296875 C 10.410156 -27.253906 9.46875 -24.273438 9.46875 -20.359375 L 9.46875 0 L 4.890625 0 L 4.890625 -35.625 Z M 9.46875 -35.625 "/></g></g></g><g fill="#ffffff" fill-opacity="1"><g transform="translate(242.843613, 324.489452)"><g><path d="M 20.75 -32.03125 L 10.890625 -32.03125 L 10.890625 -8.421875 C 10.890625 -6.628906 11.238281 -5.375 11.9375 -4.65625 C 12.632812 -3.945312 13.875 -3.59375 15.65625 -3.59375 L 20.75 -3.59375 L 20.75 0 L 14.6875 0 C 9.113281 0 6.328125 -2.804688 6.328125 -8.421875 L 6.328125 -32.03125 L 1.375 -32.03125 L 1.375 -35.625 L 6.328125 -35.625 L 6.328125 -44.5625 L 10.890625 -44.5625 L 10.890625 -35.625 L 20.75 -35.625 Z M 20.75 -32.03125 "/></g></g></g><g fill="#ffffff" fill-opacity="1"><g transform="translate(264.959459, 324.489452)"><g><path d="M 19.765625 0.65625 C 14.679688 0.65625 10.550781 -1.039062 7.375 -4.4375 C 4.195312 -7.832031 2.609375 -12.300781 2.609375 -17.84375 C 2.609375 -23.394531 4.226562 -27.851562 7.46875 -31.21875 C 10.707031 -34.59375 14.90625 -36.28125 20.0625 -36.28125 C 25.21875 -36.28125 29.316406 -34.691406 32.359375 -31.515625 C 35.410156 -28.335938 36.9375 -24.398438 36.9375 -19.703125 C 36.9375 -18.441406 36.847656 -17.269531 36.671875 -16.1875 L 7.3125 -16.1875 C 7.476562 -12.09375 8.710938 -8.867188 11.015625 -6.515625 C 13.328125 -4.171875 16.242188 -3 19.765625 -3 C 22.503906 -3 24.84375 -3.628906 26.78125 -4.890625 C 28.71875 -6.148438 30.054688 -7.804688 30.796875 -9.859375 L 35.6875 -9.859375 C 34.519531 -6.804688 32.609375 -4.289062 29.953125 -2.3125 C 27.296875 -0.332031 23.898438 0.65625 19.765625 0.65625 Z M 32.234375 -19.765625 C 32.234375 -23.679688 31.046875 -26.800781 28.671875 -29.125 C 26.304688 -31.457031 23.367188 -32.625 19.859375 -32.625 C 16.359375 -32.625 13.445312 -31.484375 11.125 -29.203125 C 8.800781 -26.921875 7.53125 -23.773438 7.3125 -19.765625 Z M 32.234375 -19.765625 "/></g></g></g><g fill="#ffffff" fill-opacity="1"><g transform="translate(304.428739, 324.489452)"><g><path d="M 3.921875 -25.78125 C 3.921875 -28.726562 5.132812 -31.210938 7.5625 -33.234375 C 10 -35.265625 13.109375 -36.28125 16.890625 -36.28125 C 20.679688 -36.28125 23.628906 -35.289062 25.734375 -33.3125 C 27.847656 -31.332031 29.015625 -28.601562 29.234375 -25.125 L 24.53125 -25.125 C 24.445312 -27.300781 23.707031 -29.09375 22.3125 -30.5 C 20.925781 -31.914062 18.988281 -32.625 16.5 -32.625 C 14.019531 -32.625 12.070312 -32.015625 10.65625 -30.796875 C 9.25 -29.578125 8.546875 -28.109375 8.546875 -26.390625 C 8.546875 -24.671875 9.066406 -23.3125 10.109375 -22.3125 C 11.160156 -21.3125 12.476562 -20.632812 14.0625 -20.28125 C 15.644531 -19.9375 17.359375 -19.523438 19.203125 -19.046875 C 21.054688 -18.566406 22.773438 -18.054688 24.359375 -17.515625 C 25.953125 -16.972656 27.269531 -15.992188 28.3125 -14.578125 C 29.363281 -13.171875 29.890625 -11.359375 29.890625 -9.140625 C 29.890625 -6.265625 28.691406 -3.910156 26.296875 -2.078125 C 23.898438 -0.253906 20.753906 0.65625 16.859375 0.65625 C 12.972656 0.65625 9.894531 -0.34375 7.625 -2.34375 C 5.363281 -4.34375 4.128906 -7.0625 3.921875 -10.5 L 8.609375 -10.5 C 8.703125 -8.28125 9.488281 -6.472656 10.96875 -5.078125 C 12.445312 -3.691406 14.476562 -3 17.0625 -3 C 19.644531 -3 21.65625 -3.550781 23.09375 -4.65625 C 24.53125 -5.769531 25.25 -7.195312 25.25 -8.9375 C 25.25 -10.675781 24.726562 -12.046875 23.6875 -13.046875 C 22.644531 -14.046875 21.328125 -14.726562 19.734375 -15.09375 C 18.148438 -15.46875 16.429688 -15.894531 14.578125 -16.375 C 12.734375 -16.851562 11.015625 -17.351562 9.421875 -17.875 C 7.835938 -18.394531 6.523438 -19.328125 5.484375 -20.671875 C 4.441406 -22.023438 3.921875 -23.726562 3.921875 -25.78125 Z M 3.921875 -25.78125 "/></g></g></g><g fill="#ffffff" fill-opacity="1"><g transform="translate(4.867727, 203.664429)"><g><path d="M 20.515625 -23.28125 L 20.515625 -23.578125 C 20.515625 -25.753906 19.878906 -27.847656 18.609375 -29.859375 C 17.859375 -31.046875 17.484375 -32.300781 17.484375 -33.625 C 17.484375 -35.3125 17.941406 -36.566406 18.859375 -37.390625 C 19.804688 -38.210938 20.785156 -38.625 21.796875 -38.625 C 22.816406 -38.625 23.800781 -38.210938 24.75 -37.390625 C 25.664062 -36.566406 26.125 -35.3125 26.125 -33.625 C 26.125 -32.300781 25.75 -31.046875 25 -29.859375 C 23.71875 -27.804688 23.078125 -25.710938 23.078125 -23.578125 L 23.078125 -23.28125 L 23.484375 -23.125 C 24.003906 -22.882812 24.46875 -22.570312 24.875 -22.1875 L 25.140625 -22.34375 C 27.046875 -23.488281 28.550781 -25.097656 29.65625 -27.171875 C 30.320312 -28.398438 31.21875 -29.347656 32.34375 -30.015625 C 33.363281 -30.609375 34.316406 -30.90625 35.203125 -30.90625 C 35.566406 -30.90625 35.929688 -30.84375 36.296875 -30.71875 C 37.492188 -30.3125 38.347656 -29.671875 38.859375 -28.796875 C 39.191406 -28.203125 39.359375 -27.53125 39.359375 -26.78125 C 39.359375 -26.414062 39.316406 -26.023438 39.234375 -25.609375 C 38.992188 -24.410156 38.140625 -23.390625 36.671875 -22.546875 C 35.617188 -21.929688 34.453125 -21.625 33.171875 -21.625 L 32.859375 -21.625 C 32.671875 -21.625 32.492188 -21.625 32.328125 -21.625 C 30.109375 -21.625 28.148438 -21.132812 26.453125 -20.15625 L 26.15625 -19.96875 C 26.21875 -19.644531 26.25 -19.316406 26.25 -18.984375 C 26.25 -18.628906 26.207031 -18.28125 26.125 -17.9375 L 26.4375 -17.765625 C 28.15625 -16.765625 30.117188 -16.265625 32.328125 -16.265625 C 32.515625 -16.265625 32.691406 -16.265625 32.859375 -16.265625 L 33.171875 -16.265625 C 34.453125 -16.265625 35.617188 -15.957031 36.671875 -15.34375 C 38.140625 -14.5 38.992188 -13.476562 39.234375 -12.28125 C 39.316406 -11.875 39.359375 -11.484375 39.359375 -11.109375 C 39.359375 -10.359375 39.191406 -9.6875 38.859375 -9.09375 C 38.347656 -8.21875 37.492188 -7.578125 36.296875 -7.171875 C 35.929688 -7.046875 35.566406 -6.984375 35.203125 -6.984375 C 34.316406 -6.984375 33.363281 -7.28125 32.34375 -7.875 C 31.21875 -8.539062 30.320312 -9.488281 29.65625 -10.71875 C 28.519531 -12.851562 27.019531 -14.457031 25.15625 -15.53125 L 24.796875 -15.734375 C 24.347656 -15.304688 23.910156 -15.015625 23.484375 -14.859375 L 23.078125 -14.71875 L 23.078125 -14.328125 C 23.078125 -12.179688 23.71875 -10.082031 25 -8.03125 C 25.75 -6.84375 26.125 -5.585938 26.125 -4.265625 C 26.125 -2.578125 25.664062 -1.328125 24.75 -0.515625 C 23.800781 0.316406 22.816406 0.734375 21.796875 0.734375 C 20.785156 0.734375 19.804688 0.316406 18.859375 -0.515625 C 17.941406 -1.328125 17.484375 -2.578125 17.484375 -4.265625 C 17.484375 -5.585938 17.859375 -6.84375 18.609375 -8.03125 C 19.910156 -10.082031 20.5625 -12.179688 20.5625 -14.328125 L 20.5625 -14.71875 C 20.40625 -14.769531 20.257812 -14.816406 20.125 -14.859375 C 19.632812 -15.085938 19.195312 -15.378906 18.8125 -15.734375 L 18.453125 -15.53125 C 16.585938 -14.457031 15.085938 -12.851562 13.953125 -10.71875 C 13.285156 -9.488281 12.390625 -8.539062 11.265625 -7.875 C 10.242188 -7.28125 9.289062 -6.984375 8.40625 -6.984375 C 8.039062 -6.984375 7.675781 -7.046875 7.3125 -7.171875 C 6.113281 -7.578125 5.257812 -8.21875 4.75 -9.09375 C 4.414062 -9.6875 4.25 -10.359375 4.25 -11.109375 C 4.25 -11.484375 4.289062 -11.875 4.375 -12.28125 C 4.613281 -13.476562 5.46875 -14.5 6.9375 -15.34375 C 7.988281 -15.957031 9.15625 -16.265625 10.4375 -16.265625 L 10.75 -16.265625 C 10.9375 -16.265625 11.113281 -16.265625 11.28125 -16.265625 C 13.519531 -16.265625 15.484375 -16.753906 17.171875 -17.734375 L 17.484375 -17.921875 C 17.398438 -18.253906 17.359375 -18.609375 17.359375 -18.984375 C 17.359375 -19.316406 17.390625 -19.644531 17.453125 -19.96875 L 17.15625 -20.15625 C 15.457031 -21.132812 13.5 -21.625 11.28125 -21.625 C 11.113281 -21.625 10.9375 -21.625 10.75 -21.625 L 10.4375 -21.625 C 9.15625 -21.625 7.988281 -21.929688 6.9375 -22.546875 C 5.46875 -23.390625 4.613281 -24.410156 4.375 -25.609375 C 4.289062 -26.023438 4.25 -26.414062 4.25 -26.78125 C 4.25 -27.53125 4.414062 -28.203125 4.75 -28.796875 C 5.257812 -29.671875 6.113281 -30.3125 7.3125 -30.71875 C 7.675781 -30.84375 8.039062 -30.90625 8.40625 -30.90625 C 9.289062 -30.90625 10.242188 -30.609375 11.265625 -30.015625 C 12.390625 -29.347656 13.285156 -28.398438 13.953125 -27.171875 C 15.117188 -24.960938 16.617188 -23.359375 18.453125 -22.359375 L 18.734375 -22.21875 C 19.171875 -22.632812 19.632812 -22.9375 20.125 -23.125 C 20.257812 -23.175781 20.390625 -23.226562 20.515625 -23.28125 Z M 20.515625 -23.28125 "/></g></g></g><g fill="#ffffff" fill-opacity="1"><g transform="translate(330.977296, 203.664429)"><g><path d="M 20.515625 -23.28125 L 20.515625 -23.578125 C 20.515625 -25.753906 19.878906 -27.847656 18.609375 -29.859375 C 17.859375 -31.046875 17.484375 -32.300781 17.484375 -33.625 C 17.484375 -35.3125 17.941406 -36.566406 18.859375 -37.390625 C 19.804688 -38.210938 20.785156 -38.625 21.796875 -38.625 C 22.816406 -38.625 23.800781 -38.210938 24.75 -37.390625 C 25.664062 -36.566406 26.125 -35.3125 26.125 -33.625 C 26.125 -32.300781 25.75 -31.046875 25 -29.859375 C 23.71875 -27.804688 23.078125 -25.710938 23.078125 -23.578125 L 23.078125 -23.28125 L 23.484375 -23.125 C 24.003906 -22.882812 24.46875 -22.570312 24.875 -22.1875 L 25.140625 -22.34375 C 27.046875 -23.488281 28.550781 -25.097656 29.65625 -27.171875 C 30.320312 -28.398438 31.21875 -29.347656 32.34375 -30.015625 C 33.363281 -30.609375 34.316406 -30.90625 35.203125 -30.90625 C 35.566406 -30.90625 35.929688 -30.84375 36.296875 -30.71875 C 37.492188 -30.3125 38.347656 -29.671875 38.859375 -28.796875 C 39.191406 -28.203125 39.359375 -27.53125 39.359375 -26.78125 C 39.359375 -26.414062 39.316406 -26.023438 39.234375 -25.609375 C 38.992188 -24.410156 38.140625 -23.390625 36.671875 -22.546875 C 35.617188 -21.929688 34.453125 -21.625 33.171875 -21.625 L 32.859375 -21.625 C 32.671875 -21.625 32.492188 -21.625 32.328125 -21.625 C 30.109375 -21.625 28.148438 -21.132812 26.453125 -20.15625 L 26.15625 -19.96875 C 26.21875 -19.644531 26.25 -19.316406 26.25 -18.984375 C 26.25 -18.628906 26.207031 -18.28125 26.125 -17.9375 L 26.4375 -17.765625 C 28.15625 -16.765625 30.117188 -16.265625 32.328125 -16.265625 C 32.515625 -16.265625 32.691406 -16.265625 32.859375 -16.265625 L 33.171875 -16.265625 C 34.453125 -16.265625 35.617188 -15.957031 36.671875 -15.34375 C 38.140625 -14.5 38.992188 -13.476562 39.234375 -12.28125 C 39.316406 -11.875 39.359375 -11.484375 39.359375 -11.109375 C 39.359375 -10.359375 39.191406 -9.6875 38.859375 -9.09375 C 38.347656 -8.21875 37.492188 -7.578125 36.296875 -7.171875 C 35.929688 -7.046875 35.566406 -6.984375 35.203125 -6.984375 C 34.316406 -6.984375 33.363281 -7.28125 32.34375 -7.875 C 31.21875 -8.539062 30.320312 -9.488281 29.65625 -10.71875 C 28.519531 -12.851562 27.019531 -14.457031 25.15625 -15.53125 L 24.796875 -15.734375 C 24.347656 -15.304688 23.910156 -15.015625 23.484375 -14.859375 L 23.078125 -14.71875 L 23.078125 -14.328125 C 23.078125 -12.179688 23.71875 -10.082031 25 -8.03125 C 25.75 -6.84375 26.125 -5.585938 26.125 -4.265625 C 26.125 -2.578125 25.664062 -1.328125 24.75 -0.515625 C 23.800781 0.316406 22.816406 0.734375 21.796875 0.734375 C 20.785156 0.734375 19.804688 0.316406 18.859375 -0.515625 C 17.941406 -1.328125 17.484375 -2.578125 17.484375 -4.265625 C 17.484375 -5.585938 17.859375 -6.84375 18.609375 -8.03125 C 19.910156 -10.082031 20.5625 -12.179688 20.5625 -14.328125 L 20.5625 -14.71875 C 20.40625 -14.769531 20.257812 -14.816406 20.125 -14.859375 C 19.632812 -15.085938 19.195312 -15.378906 18.8125 -15.734375 L 18.453125 -15.53125 C 16.585938 -14.457031 15.085938 -12.851562 13.953125 -10.71875 C 13.285156 -9.488281 12.390625 -8.539062 11.265625 -7.875 C 10.242188 -7.28125 9.289062 -6.984375 8.40625 -6.984375 C 8.039062 -6.984375 7.675781 -7.046875 7.3125 -7.171875 C 6.113281 -7.578125 5.257812 -8.21875 4.75 -9.09375 C 4.414062 -9.6875 4.25 -10.359375 4.25 -11.109375 C 4.25 -11.484375 4.289062 -11.875 4.375 -12.28125 C 4.613281 -13.476562 5.46875 -14.5 6.9375 -15.34375 C 7.988281 -15.957031 9.15625 -16.265625 10.4375 -16.265625 L 10.75 -16.265625 C 10.9375 -16.265625 11.113281 -16.265625 11.28125 -16.265625 C 13.519531 -16.265625 15.484375 -16.753906 17.171875 -17.734375 L 17.484375 -17.921875 C 17.398438 -18.253906 17.359375 -18.609375 17.359375 -18.984375 C 17.359375 -19.316406 17.390625 -19.644531 17.453125 -19.96875 L 17.15625 -20.15625 C 15.457031 -21.132812 13.5 -21.625 11.28125 -21.625 C 11.113281 -21.625 10.9375 -21.625 10.75 -21.625 L 10.4375 -21.625 C 9.15625 -21.625 7.988281 -21.929688 6.9375 -22.546875 C 5.46875 -23.390625 4.613281 -24.410156 4.375 -25.609375 C 4.289062 -26.023438 4.25 -26.414062 4.25 -26.78125 C 4.25 -27.53125 4.414062 -28.203125 4.75 -28.796875 C 5.257812 -29.671875 6.113281 -30.3125 7.3125 -30.71875 C 7.675781 -30.84375 8.039062 -30.90625 8.40625 -30.90625 C 9.289062 -30.90625 10.242188 -30.609375 11.265625 -30.015625 C 12.390625 -29.347656 13.285156 -28.398438 13.953125 -27.171875 C 15.117188 -24.960938 16.617188 -23.359375 18.453125 -22.359375 L 18.734375 -22.21875 C 19.171875 -22.632812 19.632812 -22.9375 20.125 -23.125 C 20.257812 -23.175781 20.390625 -23.226562 20.515625 -23.28125 Z M 20.515625 -23.28125 "/></g></g></g></svg>